<svg id="Layer_1" xmlns="http://www.w3.org/2000/svg" viewBox="0 0 799.5 365"><style>.st0{fill:#3483B2;} .st1{fill:#4F504F;}</style><title>CITI Program Logo</title><g id="Shape"><path class="st0" d="M121 294.9c12 28.7 29.8 49.5 52.8 64.5v-64.5H121zM173.8 3.6c-23.2 15.1-41 36-53 65h53v-65zM114.8 277.5h59v-87.6h-71.2c.6 34.6 4.7 63.5 12.2 87.6zM102.6 172.6h71.2V86h-59.2c-7.3 23.9-11.4 52.5-12 86.6zM44.2 294.9c24.6 30.1 58.9 52 98 61-16.1-17.1-28.9-37.4-38.4-61H44.2zM97.5 86H31.4c-16 25.3-25.8 54.8-27.4 86.6h80.5c.7-32.4 5.1-61.2 13-86.6zM84.5 189.9H4c1.5 32.1 11.5 62 27.7 87.6h65.9c-8-25.7-12.4-54.8-13.1-87.6zM142.3 7.1c-39.4 9.1-73.8 31.2-98.5 61.5h59.8c9.5-23.8 22.5-44.3 38.7-61.5z"/></g><g id="Shape_1_"><path class="st0" d="M367.257 66.5h-4.4c-9.8-35.6-32.8-55.2-65.6-55.2-28.4 0-48 14.6-54.4 40.3-3.4 12.2-5.1 37.9-5.1 70.4 0 53.5 2 69.7 9.8 82.9 9.1 15.9 27.4 25.4 48.7 25.4 19.3 0 37.9-9.8 50.1-26.1 6.1-8.5 10.1-16.3 16.6-33.2h4.4v62.6h-4.4l-11.2-16.9c-22 14.9-37.2 20.3-56.5 20.3-53.1 0-95.7-51.1-95.7-115.1 0-66 42.9-117.5 97.7-117.5 20.3 0 34.8 5.4 54.4 20.3l11.2-16.9h4.4v58.7zM424.057 14h-29.4V7.9h90.3V14h-29.5v213.6h29.5v6.1h-90.3v-6.1h29.4zM610.057 227.6h33.8v6.1h-99.1v-6.1h33.8V14h-16.2c-23 0-31.5 4.4-42.3 22-6.8 11.2-10.5 22-15.2 43l-4.4-.7 2.7-70.4h180.9l4.4 70.4-4.4.7c-14.9-51.8-26.4-65-57.2-65h-16.8v213.6zM733.857 14h-29.5V7.9h90.3V14h-29.4v213.6h29.4v6.1h-90.3v-6.1h29.5z"/></g><g id="Shape_2_"><path class="st1" d="M238.416 353.552h12.1v2.3h-35.5v-2.3h11.3v-82.2h-11.3v-2.3h36.4c10.9 0 18.2 2 23.2 6.4 4.9 4.2 7.7 10.2 7.7 16.4 0 6.5-3.3 12.6-9.1 16.8-4.9 3.6-11.7 5.2-21.7 5.2h-13l-.1 39.7zm12.2-42.1c13.3 0 16.9-4.4 16.9-20.4 0-15.5-3.6-19.7-17-19.7h-12.1v40.1h12.2zM312.816 353.552h12.1v2.3h-35.5v-2.3h11.3v-82.2h-11.3v-2.3h35.4c12.5 0 17.8 1 22.9 4.7 5.2 3.6 7.8 8.9 7.8 15.5 0 5.9-2.6 10.9-7.9 15-4.7 3.5-9.1 4.9-19 6.1 9.5 1.7 13.5 3.4 17.6 7.6 4.3 4.4 6.5 10.3 6.5 16.8v7.2c0 8.7 1.8 12 6.8 12 1.4 0 2.7-.4 5.3-1.7l.7 2.2c-3.4 1.7-5.5 2.2-8.7 2.2-11.7 0-17.8-7.7-17.8-22.1v-6.4c0-11.6-5.9-17.1-18.1-17.1h-7.9v42.5h-.2zm8.4-45c14.1 0 20.7-6 20.7-18.6 0-13-6-18.6-19.9-18.6h-9.2v37.2h8.4zM444.816 312.352c0 25.4-16 44.8-36.8 44.8-20.9 0-36.9-19.4-36.9-44.8 0-25.3 16-44.7 36.9-44.7 20.8.1 36.8 19.5 36.8 44.7zm-57.5-26.5c-1.3 4.8-1.6 10-1.6 26.7 0 19.7.4 24.7 2.7 30.1 3.1 7.4 10.4 12 19.5 12 10.5 0 18.1-5.7 20.6-15.6 1.3-4.7 1.6-9.9 1.6-26.6 0-19.7-.5-24.7-2.7-30.1-3.1-7.4-10.4-12-19.4-12-10.7 0-18.2 5.7-20.7 15.5zM519.916 294.552h-1.7c-4-15.9-12.5-24.2-24.8-24.2-9.5 0-16.3 4.6-19 12.9-1.7 5.2-2.7 17.2-2.7 30.7 0 15 .8 23.6 2.3 28.4 2.9 8.1 8.8 12.2 17.4 12.2 8.6 0 14.6-4.7 16.8-12.9.8-3 1-6.2 1-13.4h-13.5v-2.3h36.4v2.3h-8.7c-1.4 10-3.1 14.5-7.3 19-5.9 6.4-13.9 9.9-23.2 9.9-20.6 0-36-18.9-36-44.2 0-25.5 16.3-45.3 37.3-45.3 6.8 0 12.7 2.1 19.5 6.8l4.4-5.5h1.7l.1 25.6zM561.116 353.552h12.1v2.3h-35.5v-2.3h11.3v-82.2h-11.3v-2.3h35.4c12.5 0 17.8 1 22.9 4.7 5.2 3.6 7.8 8.9 7.8 15.5 0 5.9-2.6 10.9-7.9 15-4.7 3.5-9.1 4.9-19 6.1 9.5 1.7 13.5 3.4 17.6 7.6 4.3 4.4 6.5 10.3 6.5 16.8v7.2c0 8.7 1.8 12 6.8 12 1.4 0 2.7-.4 5.3-1.7l.7 2.2c-3.4 1.7-5.5 2.2-8.7 2.2-11.7 0-17.8-7.7-17.8-22.1v-6.4c0-11.6-5.9-17.1-18.1-17.1h-7.9v42.5h-.2zm8.4-45c14.1 0 20.7-6 20.7-18.6 0-13-6-18.6-19.9-18.6h-9.2v37.2h8.4zM637.016 328.052l-8.7 25.5h11.4v2.3h-23v-2.3h8.3l29.5-84.5h3.5l28.5 84.5h9.9v2.3h-35.4v-2.3h12.4l-8.8-25.5h-27.6zm14-40.8l-13 38.4h25.9l-12.9-38.4zM713.316 271.352v82.2h11.3v2.3h-24.7v-2.3h10.4v-82.2h-10.4v-2.3h26l20 65.2 20.2-65.2h25.4v2.3h-11.4v82.2h11.4v2.3h-34.8v-2.3h11.3v-81.5l-26 83.8h-2.5z"/></g></svg>
